<?xml version="1.0" encoding="UTF-8"?>
<svg version="1.1" xmlns="http://www.w3.org/2000/svg" width="612" height="612">
<path d="M0 0 C201.96 0 403.92 0 612 0 C612 201.96 612 403.92 612 612 C410.04 612 208.08 612 0 612 C0 410.04 0 208.08 0 0 Z " fill="#190E49" transform="translate(0,0)"/>
<path d="M0 0 C0.90878906 0.38929688 1.81757813 0.77859375 2.75390625 1.1796875 C19.86690555 8.62858905 37.11842469 19.38233467 50 33 C50.845625 33.825 51.69125 34.65 52.5625 35.5 C54.89448943 37.89178403 56.91515471 40.39394339 59 43 C59.76441406 43.74894531 60.52882813 44.49789062 61.31640625 45.26953125 C64.08664439 48.08815783 66.54445345 51.05157386 68.9375 54.1875 C69.37425049 54.75847412 69.81100098 55.32944824 70.26098633 55.91772461 C73.89845759 60.74049235 77.01335685 65.75099501 80 71 C80.58652344 71.94488281 81.17304688 72.88976562 81.77734375 73.86328125 C85.40647264 79.77883807 88.03255202 85.3925973 90.04296875 92.03125 C90.99116649 94.97259808 92.16157349 97.68743134 93.4375 100.5 C100.71200688 117.74327557 103 136.42477479 103 155 C-9.86 155 -122.72 155 -239 155 C-237.8411215 130.6635514 -237.8411215 130.6635514 -235 119 C-234.76152344 117.95585937 -234.52304688 116.91171875 -234.27734375 115.8359375 C-231.63581375 104.66356472 -227.98100886 94.48251366 -222.68359375 84.32421875 C-220.95388602 81.01277366 -220.95388602 81.01277366 -219.5546875 77.515625 C-217.89527194 73.76317775 -215.93849841 70.47780794 -213.6875 67.0625 C-213.28797119 66.44987305 -212.88844238 65.83724609 -212.47680664 65.20605469 C-209.49090856 60.66310797 -206.37586666 56.26289284 -203 52 C-202.3503125 51.16597656 -201.700625 50.33195312 -201.03125 49.47265625 C-193.97453704 40.50694444 -193.97453704 40.50694444 -190 37 C-189.34 37 -188.68 37 -188 37 C-187.773125 36.43796875 -187.54625 35.8759375 -187.3125 35.296875 C-185.63070365 32.35373139 -183.5289089 30.49955268 -181 28.25 C-180.113125 27.45078125 -179.22625 26.6515625 -178.3125 25.828125 C-176 24 -176 24 -174 24 C-174 23.34 -174 22.68 -174 22 C-172.453125 20.7734375 -172.453125 20.7734375 -170.25 19.375 C-167.56712841 17.65595942 -164.90563385 15.93409348 -162.29296875 14.109375 C-115.78708629 -18.20935043 -51.40463843 -23.45290534 0 0 Z " fill="#FA7731" transform="translate(374,149)"/>
<path d="M0 0 C112.86 0 225.72 0 342 0 C342 12 342 12 341 17 C228.8 17 116.6 17 1 17 C0 12 0 12 0 0 Z " fill="#EB235F" transform="translate(135,308)"/>
<path d="M0 0 C111.54 0 223.08 0 338 0 C337 9 337 9 335 16 C225.11 16 115.22 16 2 16 C0 6 0 6 0 0 Z " fill="#E61D60" transform="translate(137,330)"/>
<path d="M0 0 C107.91 0 215.82 0 327 0 C324 12 324 12 322 14 C319.70616567 14.24839699 319.70616567 14.24839699 316.77196312 14.24609566 C315.65677783 14.25007775 314.54159255 14.25405985 313.39261377 14.25816262 C312.15722695 14.25233693 310.92184012 14.24651125 309.64901733 14.24050903 C308.34465528 14.24221788 307.04029323 14.24392673 305.69640505 14.24568737 C302.06377771 14.25017668 298.43126745 14.24213561 294.79865503 14.23213124 C290.88590647 14.22352174 286.97316491 14.22641512 283.06040955 14.22793579 C276.27727052 14.22898623 269.49416987 14.22269306 262.7110405 14.21146011 C252.90369061 14.19522956 243.09635935 14.18999962 233.28899749 14.18748413 C217.37852686 14.18310318 201.4680767 14.16978324 185.55761719 14.15087891 C170.09895938 14.13253045 154.64030712 14.11836889 139.18164062 14.10986328 C138.22931448 14.10933783 137.27698834 14.10881239 136.29580383 14.10827102 C131.5184264 14.10566101 126.74104894 14.10313358 121.96367145 14.10064721 C82.30909996 14.07990225 42.65455133 14.04466586 3 14 C2.49038154 12.60764957 1.99275091 11.21090882 1.5 9.8125 C1.2215625 9.03519531 0.943125 8.25789063 0.65625 7.45703125 C0 5 0 5 0 0 Z " fill="#EB1D60" transform="translate(143,353)"/>
<path d="M0 0 C102.63 0 205.26 0 311 0 C309 6 309 6 305 13 C206 13 107 13 5 13 C4.67 11.68 4.34 10.36 4 9 C3.34 9 2.68 9 2 9 C1.34 6.03 0.68 3.06 0 0 Z " fill="#E21C61" transform="translate(151,375)"/>
<path d="M0 0 C94.71 0 189.42 0 287 0 C286.02255466 4.8872267 284.92171502 7.10437998 282 11 C279.60740082 12.19629959 278.14600134 12.12426758 275.4747448 12.12304783 C274.51631231 12.12503888 273.55787983 12.12702993 272.57040393 12.12908131 C271.51010978 12.12616847 270.44981563 12.12325563 269.35739136 12.12025452 C268.23678916 12.12110894 267.11618696 12.12196337 265.96162713 12.12284368 C262.18127065 12.12449967 258.4009579 12.11897515 254.62060547 12.11352539 C251.92083711 12.1126877 249.22106963 12.11335715 246.52130127 12.1139679 C240.69581519 12.11449303 234.87034029 12.11134731 229.04485703 12.10573006 C220.62211775 12.09761366 212.1993839 12.09499969 203.77664115 12.09374207 C190.1123215 12.09155177 176.44800781 12.08489228 162.78369141 12.07543945 C149.50765004 12.06626477 136.2316103 12.05918421 122.95556641 12.05493164 C122.13765506 12.05466892 121.31974372 12.05440619 120.47704719 12.05413551 C116.37395295 12.0528305 112.27085869 12.05156679 108.16776443 12.05032361 C74.11183863 12.03995168 40.05592004 12.02233396 6 12 C4 8 2 4 0 0 Z " fill="#D91B5F" transform="translate(162,397)"/>
<path d="M0 0 C1.60822932 2.87960533 2.31924857 5.20814877 2.6328125 8.484375 C2.75849609 9.76441406 2.75849609 9.76441406 2.88671875 11.0703125 C2.96535156 11.95460938 3.04398437 12.83890625 3.125 13.75 C3.21136719 14.61882812 3.29773438 15.48765625 3.38671875 16.3828125 C3.8858324 21.65915684 4 26.65000576 4 32 C-108.86 32 -221.72 32 -338 32 C-338 29.36 -338 26.72 -338 24 C-226.79 24 -115.58 24 -1 24 C-0.06052254 17.60072835 -0.06052254 17.60072835 -1 12 C-0.91802229 9.89237945 -0.77009081 7.78647374 -0.5625 5.6875 C-0.46066406 4.61886719 -0.35882813 3.55023438 -0.25390625 2.44921875 C-0.17011719 1.64097656 -0.08632813 0.83273437 0 0 Z " fill="#E83254" transform="translate(473,272)"/>
<path d="M0 0 C83.82 0 167.64 0 254 0 C252.69349313 5.22602749 250.40638881 7.93683564 246 11 C242.7231539 11.96108005 239.63001323 11.93578505 236.23239136 11.86869812 C234.7831341 11.88190298 234.7831341 11.88190298 233.30459893 11.8953746 C230.07576356 11.91622704 226.84934884 11.88716692 223.62060547 11.8581543 C221.30258427 11.86272936 218.98456735 11.87032794 216.66656494 11.88072205 C210.37727167 11.89981394 204.08883911 11.87510854 197.79963446 11.84148383 C191.21962841 11.81259486 184.6396556 11.82023107 178.05960083 11.82295227 C167.01176133 11.82321331 155.96424047 11.7937036 144.91650391 11.74780273 C133.551842 11.70060481 122.18751326 11.6793768 110.82275391 11.6862793 C97.12068055 11.69454729 83.41881423 11.68310193 69.71677017 11.65207863 C64.48480599 11.6403646 59.25290791 11.63583309 54.02093124 11.63687706 C47.86319795 11.63675135 41.70585034 11.61646555 35.5482254 11.58048439 C33.28630955 11.57038855 31.0243518 11.56709331 28.76241684 11.57102966 C25.6790733 11.57522467 22.5968491 11.55487578 19.51364136 11.52812195 C18.6147166 11.53499848 17.71579185 11.541875 16.78962696 11.54895991 C12.64325829 11.48743919 10.51202446 11.31569371 6.90539742 9.09199238 C5 7 5 7 5 5 C4.34 5 3.68 5 3 5 C2.01 3.35 1.02 1.7 0 0 Z " fill="#D61B60" transform="translate(178,419)"/>
<path d="M0 0 C68.97 0 137.94 0 209 0 C200.74636928 8.25363072 194.96569162 10.76216584 183.33345032 10.79095459 C181.64718098 10.77610285 179.96091693 10.7606407 178.2746582 10.74462891 C176.48012449 10.74949038 174.6855962 10.7569345 172.89108276 10.76675415 C168.03777005 10.78549917 163.18526913 10.76678645 158.33202004 10.74008989 C153.24593817 10.71739243 148.15989425 10.72568091 143.07377625 10.72958374 C134.53724969 10.73134707 126.00104159 10.70923893 117.46459961 10.67236328 C107.59929758 10.62999093 97.73446118 10.6230183 87.86908656 10.6354872 C78.36870327 10.64687921 68.86848369 10.63558034 59.36812401 10.61314011 C55.32876745 10.60385846 51.28951118 10.60209586 47.25014687 10.6063118 C42.49506071 10.61008138 37.74044802 10.59384164 32.98546982 10.56219101 C31.2416028 10.55371331 29.4976877 10.55199891 27.75380898 10.55757141 C25.37147235 10.56402881 22.99054444 10.54582278 20.60835266 10.52139282 C19.57571154 10.53273079 19.57571154 10.53273079 18.52220899 10.54429781 C13.62567125 10.45559011 10.74909612 9.10743742 7 6 C7 5.34 7 4.68 7 4 C6.21625 3.71125 5.4325 3.4225 4.625 3.125 C2 2 2 2 0 0 Z " fill="#CE1B5F" transform="translate(201,441)"/>
<path d="M0 0 C43.23 0 86.46 0 131 0 C130 2 130 2 128.16503906 2.82202148 C127.37323242 3.08571533 126.58142578 3.34940918 125.765625 3.62109375 C124.88801514 3.91540283 124.01040527 4.20971191 123.10620117 4.51293945 C122.16365479 4.81804443 121.2211084 5.12314941 120.25 5.4375 C118.8100769 5.90772583 118.8100769 5.90772583 117.34106445 6.38745117 C84.68491799 16.89339844 51.22682411 16.19202242 18.25390625 7.58300781 C16.31083951 7.08040346 14.35918911 6.61119916 12.40625 6.1484375 C11.4471875 5.91382813 10.488125 5.67921875 9.5 5.4375 C8.7265625 5.25058594 7.953125 5.06367188 7.15625 4.87109375 C5 4 5 4 0 0 Z " fill="#C6195C" transform="translate(240,463)"/>
<path d="M0 0 C105.6 0 211.2 0 320 0 C320 0.66 320 1.32 320 2 C231.96974182 2 143.93948364 2 5 2 C5 3.65 5 5.3 5 7 C109.28 7 213.56 7 321 7 C321 7.33 321 7.66 321 8 C215.73 8 110.46 8 2 8 C1.34 5.36 0.68 2.72 0 0 Z " fill="#D81A5D" transform="translate(144,359)"/>
<path d="M0 0 C97.68 0 195.36 0 296 0 C296 0.66 296 1.32 296 2 C294.35 2.66 292.7 3.32 291 4 C291 5.32 291 6.64 291 8 C290.34 8 289.68 8 289 8 C289 7.34 289 6.68 289 6 C146.44 6.495 146.44 6.495 1 7 C1 6.34 1 5.68 1 5 C95.71 5 190.42 5 288 5 C288 4.34 288 3.68 288 3 C288.66 3 289.32 3 290 3 C290 2.34 290 1.68 290 1 C289.34 1.33 288.68 1.66 288 2 C286.4209409 2.09360908 284.83793277 2.12373498 283.25610161 2.12304783 C281.74530157 2.1260344 281.74530157 2.1260344 280.20398033 2.12908131 C279.0892129 2.12616847 277.97444547 2.12325563 276.82589722 2.12025452 C275.64812529 2.12110894 274.47035336 2.12196337 273.25689137 2.12284368 C269.97774223 2.12421035 266.69863222 2.1210686 263.41948771 2.11606562 C259.88711085 2.11176001 256.35473592 2.11320762 252.82235718 2.1139679 C246.69893839 2.11449306 240.57553022 2.11134704 234.45211411 2.10573006 C225.59860761 2.09761405 216.74510627 2.09499973 207.89159645 2.09374207 C193.52847675 2.09155171 179.16536272 2.08489205 164.80224609 2.07543945 C150.84716826 2.06626492 136.89209196 2.05918429 122.93701172 2.05493164 C121.6474178 2.05453756 121.6474178 2.05453756 120.33177148 2.05413551 C116.01890024 2.0528305 111.70602898 2.05156679 107.39315772 2.05032361 C71.59543448 2.03995149 35.79771768 2.0223336 0 2 C0 1.34 0 0.68 0 0 Z " fill="#280F44" transform="translate(160,391)"/>
<path d="M0 0 C94.71 0 189.42 0 287 0 C286.67 0.66 286.34 1.32 286 2 C283.69 2 281.38 2 279 2 C278.67 2.66 278.34 3.32 278 4 C186.59 3.67 95.18 3.34 1 3 C0.67 2.01 0.34 1.02 0 0 Z " fill="#E81B63" transform="translate(162,397)"/>
<path d="M0 0 C0.99 0 1.98 0 3 0 C3 0.99 3 1.98 3 3 C4.65 3 6.3 3 8 3 C8 3.99 8 4.98 8 6 C7.34 6 6.68 6 6 6 C6 5.34 6 4.68 6 4 C-77.82 4 -161.64 4 -248 4 C-248.33 3.34 -248.66 2.68 -249 2 C-243.64514655 0.88582001 -238.49268432 0.87783024 -233.05325317 0.91770935 C-231.55710851 0.92255304 -231.55710851 0.92255304 -230.03073871 0.92749459 C-226.69118888 0.93955087 -223.35172201 0.9589277 -220.01220703 0.97827148 C-217.61726562 0.98841626 -215.22232226 0.99810972 -212.82737732 1.00738525 C-207.00080709 1.03109923 -201.1742735 1.05951866 -195.34773512 1.09001332 C-188.56659743 1.12525019 -181.7854383 1.15468438 -175.00427185 1.18376113 C-162.91168192 1.23576619 -150.8191179 1.29234546 -138.7265625 1.35180664 C-126.98145557 1.40954955 -115.23634168 1.46513487 -103.49121094 1.51782227 C-102.40481556 1.52269684 -102.40481556 1.52269684 -101.2964728 1.5276699 C-97.66296745 1.54395988 -94.02946191 1.56020748 -90.39595628 1.57643402 C-60.26393885 1.71105259 -30.13196057 1.85317321 0 2 C0 1.34 0 0.68 0 0 Z " fill="#290C42" transform="translate(426,415)"/>
<path d="M0 0 C0 1.98 0 3.96 0 6 C-0.60328125 6.04898438 -1.2065625 6.09796875 -1.828125 6.1484375 C-2.62734375 6.22320312 -3.4265625 6.29796875 -4.25 6.375 C-5.03890625 6.44460937 -5.8278125 6.51421875 -6.640625 6.5859375 C-9.085877 7.01507113 -10.84836903 7.78600638 -13 9 C-11.68 9.33 -10.36 9.66 -9 10 C-9.33 11.32 -9.66 12.64 -10 14 C-11.01320313 13.96519531 -11.01320313 13.96519531 -12.046875 13.9296875 C-12.93890625 13.91164062 -13.8309375 13.89359375 -14.75 13.875 C-15.63171875 13.85179687 -16.5134375 13.82859375 -17.421875 13.8046875 C-20.1135858 14.00860498 -21.69904974 14.63448279 -24 16 C-24 17.65 -24 19.3 -24 21 C-24.763125 21.103125 -25.52625 21.20625 -26.3125 21.3125 C-29.23942162 22.06124739 -30.31505916 22.51692929 -32 25 C-32.25069913 27.62570704 -32.25069913 27.62570704 -32 30 C-34.31 30.33 -36.62 30.66 -39 31 C-39.33 33.31 -39.66 35.62 -40 38 C-41.6396875 38.061875 -41.6396875 38.061875 -43.3125 38.125 C-47.23644386 38.60681077 -47.23644386 38.60681077 -48.9375 42 C-50.05564119 44.62667216 -50.05564119 44.62667216 -50 46 C-51.98 46.66 -53.96 47.32 -56 48 C-56 49.65 -56 51.3 -56 53 C-57.98 53.495 -57.98 53.495 -60 54 C-60.96725406 51.21914457 -61.37617265 49.86704564 -61 47 C-58.73577989 43.299092 -55.94094898 40.17708357 -53 37 C-52.47921875 36.4225 -51.9584375 35.845 -51.421875 35.25 C-50.125 33.875 -50.125 33.875 -48 32 C-47.34 32 -46.68 32 -46 32 C-45.773125 31.43796875 -45.54625 30.8759375 -45.3125 30.296875 C-43.63070365 27.35373139 -41.5289089 25.49955268 -39 23.25 C-38.113125 22.45078125 -37.22625 21.6515625 -36.3125 20.828125 C-34 19 -34 19 -32 19 C-32 18.34 -32 17.68 -32 17 C-30.453125 15.7734375 -30.453125 15.7734375 -28.25 14.375 C-24.44035455 11.9272278 -20.68028221 9.42408674 -16.9375 6.875 C-4.38999254 -1.46333085 -4.38999254 -1.46333085 0 0 Z " fill="#F09F1B" transform="translate(232,154)"/>
<path d="M0 0 C0.33 0 0.66 0 1 0 C1 2.64 1 5.28 1 8 C112.21 8 223.42 8 338 8 C338 8.33 338 8.66 338 9 C226.79 9 115.58 9 1 9 C1 13.95 1 18.9 1 24 C0.34 24 -0.32 24 -1 24 C-1.18451025 7.1070615 -1.18451025 7.1070615 0 0 Z " fill="#0D1243" transform="translate(134,296)"/>
<path d="M0 0 C0.99 0 1.98 0 3 0 C1.92289822 4.30840713 0.96052484 7.63576723 -2 11 C-2.33 9.68 -2.66 8.36 -3 7 C-108.6 6.67 -214.2 6.34 -323 6 C-323 5.67 -323 5.34 -323 5 C-216.41 5 -109.82 5 0 5 C0 3.35 0 1.7 0 0 Z " fill="#F41B67" transform="translate(467,353)"/>
<path d="M0 0 C1.8572168 0.00676758 1.8572168 0.00676758 3.75195312 0.01367188 C6.77218785 0.02533301 9.79231677 0.04169764 12.8125 0.0625 C12.8125 0.3925 12.8125 0.7225 12.8125 1.0625 C12.05106689 1.07708252 11.28963379 1.09166504 10.50512695 1.10668945 C7.04458112 1.18130541 3.58498555 1.27792259 0.125 1.375 C-1.07318359 1.39755859 -2.27136719 1.42011719 -3.50585938 1.44335938 C-5.24125977 1.4965332 -5.24125977 1.4965332 -7.01171875 1.55078125 C-8.07479248 1.57696533 -9.13786621 1.60314941 -10.2331543 1.63012695 C-13.55961642 2.11695981 -15.48867443 3.08719581 -18.1875 5.0625 C-18.5175 5.7225 -18.8475 6.3825 -19.1875 7.0625 C-19.8475 7.0625 -20.5075 7.0625 -21.1875 7.0625 C-21.5175 7.7225 -21.8475 8.3825 -22.1875 9.0625 C-22.1875 8.4025 -22.1875 7.7425 -22.1875 7.0625 C-23.07953125 7.206875 -23.9715625 7.35125 -24.890625 7.5 C-26.06109375 7.685625 -27.2315625 7.87125 -28.4375 8.0625 C-29.59765625 8.248125 -30.7578125 8.43375 -31.953125 8.625 C-35.23344581 9.06871489 -38.35641095 9.0979493 -41.66015625 8.95703125 C-42.51480469 8.92996094 -43.36945313 8.90289062 -44.25 8.875 C-45.10722656 8.84019531 -45.96445312 8.80539063 -46.84765625 8.76953125 C-49.25170387 8.87362535 -49.25170387 8.87362535 -51.015625 10.4375 C-52.45013985 12.03065555 -52.45013985 12.03065555 -51.875 14.25 C-51.648125 14.848125 -51.42125 15.44625 -51.1875 16.0625 C-55.81209244 17.23950048 -60.26616462 17.17658412 -65 17.125 C-66.18239258 17.11823242 -66.18239258 17.11823242 -67.38867188 17.11132812 C-69.32164761 17.09961312 -71.25458393 17.08167998 -73.1875 17.0625 C-73.1875 16.4025 -73.1875 15.7425 -73.1875 15.0625 C-61.48249231 10.4068163 -49.78652637 6.45379556 -37.5 3.625 C-36.4392627 3.37862793 -35.37852539 3.13225586 -34.28564453 2.87841797 C-22.81649363 0.34472425 -11.7193948 -0.08213053 0 0 Z " fill="#F3C40E" transform="translate(307.1875,134.9375)"/>
<path d="M0 0 C-2.475 2.475 -2.475 2.475 -5 5 C-5.33 4.34 -5.66 3.68 -6 3 C-120.84 2.505 -120.84 2.505 -238 2 C-238 1.67 -238 1.34 -238 1 C-208.40228642 0.87248175 -178.80457238 0.74507312 -149.20685767 0.61781773 C-145.71334456 0.60279727 -142.21983146 0.58777588 -138.72631836 0.57275391 C-137.68306582 0.56826798 -137.68306582 0.56826798 -136.61873748 0.56369144 C-125.3541927 0.51525235 -114.08964825 0.46673746 -102.82510392 0.41819459 C-91.26844329 0.36839458 -79.71178232 0.31867754 -68.15512103 0.26903296 C-61.66318055 0.24114254 -55.17124024 0.21321413 -48.67930031 0.18519592 C-42.57189218 0.15883848 -36.46448363 0.13258118 -30.35707474 0.10640144 C-28.11288245 0.0967638 -25.86869032 0.08708924 -23.62449837 0.07737541 C-20.56528387 0.06413929 -17.50606884 0.05103486 -14.44685364 0.03796387 C-13.55482689 0.03407292 -12.66280015 0.03018197 -11.74374229 0.02617311 C-7.82912899 0.00957578 -3.91466026 -0.00486417 0 0 Z " fill="#D21D56" transform="translate(430,423)"/>
<path d="M0 0 C68.97 0 137.94 0 209 0 C208.34 0.99 207.68 1.98 207 3 C206.34 3 205.68 3 205 3 C205 2.34 205 1.68 205 1 C203.43345389 1.01049598 203.43345389 1.01049598 201.83526039 1.02120399 C176.45686806 1.1907823 151.07842411 1.34885642 125.69988441 1.49477577 C113.42716061 1.56560847 101.15448121 1.64021817 88.88183594 1.72363281 C78.1885497 1.79630339 67.49524766 1.86197575 56.80186689 1.91914403 C51.13660642 1.94967837 45.471417 1.98378501 39.80623245 2.02626419 C34.47941369 2.06609584 29.15262473 2.09660554 23.82570839 2.11981392 C21.86565722 2.13002454 19.90562075 2.14370748 17.94561958 2.16103554 C15.27942196 2.18409931 12.6134538 2.19492286 9.94717407 2.20254517 C9.16313725 2.2122618 8.37910043 2.22197843 7.57130492 2.2319895 C2.22824242 2.22824242 2.22824242 2.22824242 0 0 Z " fill="#BF1665" transform="translate(201,441)"/>
<path d="M0 0 C64.68 0.33 129.36 0.66 196 1 C196 1.33 196 1.66 196 2 C170.74011636 2.15377762 145.48020477 2.30181421 120.22024727 2.4429636 C108.49235401 2.5086323 96.76447737 2.57619955 85.03662109 2.64819336 C74.81795688 2.71091792 64.59927948 2.77012407 54.38057029 2.82505554 C48.96685029 2.85428161 43.55315368 2.88530316 38.13946915 2.92053413 C33.04902835 2.95360602 27.95858342 2.98199091 22.8680954 3.00670624 C20.99513364 3.01663974 19.12218024 3.02831839 17.24924088 3.04183006 C14.70132592 3.05995585 12.15345584 3.07192727 9.60549927 3.08229065 C8.85648098 3.08909444 8.10746269 3.09589823 7.33574688 3.10290819 C2.22824242 3.11412121 2.22824242 3.11412121 0 2 C0 1.34 0 0.68 0 0 Z " fill="#CE1C56" transform="translate(204,442)"/>
<path d="M0 0 C0.66 1.32 1.32 2.64 2 4 C1.67 4 1.34 4 1 4 C0.91773332 7.04386724 1.02391783 9.07175348 2 12 C0.02 12.99 0.02 12.99 -2 14 C-1.98839844 14.84304688 -1.97679687 15.68609375 -1.96484375 16.5546875 C-1.95130859 18.19824219 -1.95130859 18.19824219 -1.9375 19.875 C-1.92589844 20.96554687 -1.91429687 22.05609375 -1.90234375 23.1796875 C-2 26 -2 26 -3 28 C-2.34 28.33 -1.68 28.66 -1 29 C-1.99 30.32 -2.98 31.64 -4 33 C-3.34 33.33 -2.68 33.66 -2 34 C-2 37.3 -2 40.6 -2 44 C-3.1446875 44.1546875 -3.1446875 44.1546875 -4.3125 44.3125 C-7.22636046 45.05790616 -8.02950397 45.84458939 -10 48 C-10.84866337 31.875396 -5.26191922 15.06458091 0 0 Z " fill="#F5474D" transform="translate(146,244)"/>
<path d="M0 0 C61.38 0 122.76 0 186 0 C185.01 0.99 184.02 1.98 183 3 C180.27757072 2.69738865 180.27757072 2.69738865 177 2 C174.52100413 1.90185741 172.03977566 1.85409818 169.55886841 1.84178162 C168.83095309 1.83684364 168.10303777 1.83190566 167.35306442 1.82681805 C164.92564539 1.81151862 162.49825266 1.80310304 160.07080078 1.79467773 C158.32609325 1.78509326 156.58138802 1.77508285 154.83668518 1.76467896 C150.10786716 1.73768549 145.37903922 1.71664588 140.65018702 1.69667697 C135.70540218 1.67478308 130.76064774 1.64741105 125.81588745 1.62062073 C116.45566376 1.57073983 107.09542315 1.52578394 97.73516643 1.48259836 C87.07741072 1.43318663 76.41968551 1.3782831 65.76195931 1.32291877 C43.84133464 1.2091694 21.92068083 1.10231505 0 1 C0 0.67 0 0.34 0 0 Z " fill="#CD1C57" transform="translate(215,447)"/>
<path d="M0 0 C13.07466576 -0.2899039 25.59270623 3.18087989 38 7 C38 7.33 38 7.66 38 8 C34.12501596 8.02917234 30.25006042 8.04685673 26.375 8.0625 C24.73337891 8.07506836 24.73337891 8.07506836 23.05859375 8.08789062 C21.46337891 8.09272461 21.46337891 8.09272461 19.8359375 8.09765625 C18.86188965 8.10289307 17.8878418 8.10812988 16.88427734 8.11352539 C14 8 14 8 10.69775391 7.43139648 C9.80749512 7.28903564 8.91723633 7.1466748 8 7 C7.67 7.33 7.34 7.66 7 8 C4.66702567 8.04092937 2.33294775 8.04241723 0 8 C0 5.33333333 0 2.66666667 0 0 Z " fill="#F2C608" transform="translate(320,136)"/>
<path d="M0 0 C11.67414961 0.45780979 22.05753971 7.38121483 32 13 C31.67 13.66 31.34 14.32 31 15 C26.05 15 21.1 15 16 15 C16 13.02 16 11.04 16 9 C14.11621939 6.67058121 14.11621939 6.67058121 10.99609375 6.83984375 C9.82175781 6.87207031 8.64742188 6.90429688 7.4375 6.9375 C5.29224614 6.99154254 3.14583715 7.02043654 1 7 C0 6 0 6 -0.0625 2.9375 C-0.041875 1.968125 -0.02125 0.99875 0 0 Z " fill="#FBBC0D" transform="translate(360,145)"/>
<path d="M0 0 C8.8307025 4.0882882 16.74763931 9.5110457 24 16 C24 16.33 24 16.66 24 17 C18.72 17 13.44 17 8 17 C8 14.36 8 11.72 8 9 C5.36 9 2.72 9 0 9 C0 6.03 0 3.06 0 0 Z " fill="#F8B115" transform="translate(392,159)"/>
<path d="M0 0 C1.32 0.66 2.64 1.32 4 2 C4 3.32 4 4.64 4 6 C3.01 6.33 2.02 6.66 1 7 C-1.09020339 10.29867136 -1.09020339 10.29867136 -2 14 C-3.98 14.66 -5.96 15.32 -8 16 C-8 17.65 -8 19.3 -8 21 C-9.32 21.33 -10.64 21.66 -12 22 C-12.96725406 19.21914457 -13.37617265 17.86704564 -13 15 C-9.54828636 9.35811273 -4.81240507 4.51162976 0 0 Z " fill="#F59121" transform="translate(184,186)"/>
<path d="M0 0 C0 1.98 0 3.96 0 6 C-0.90492188 6.07347656 -0.90492188 6.07347656 -1.828125 6.1484375 C-2.62734375 6.22320312 -3.4265625 6.29796875 -4.25 6.375 C-5.03890625 6.44460937 -5.8278125 6.51421875 -6.640625 6.5859375 C-9.085877 7.01507113 -10.84836903 7.78600638 -13 9 C-11.68 9.33 -10.36 9.66 -9 10 C-9.33 11.32 -9.66 12.64 -10 14 C-12.97 14 -15.94 14 -19 14 C-19.33 13.01 -19.66 12.02 -20 11 C-19.01 11 -18.02 11 -17 11 C-16.6596875 10.1646875 -16.6596875 10.1646875 -16.3125 9.3125 C-13.08433664 3.62478361 -6.85268239 -2.28422746 0 0 Z " fill="#EAB113" transform="translate(232,154)"/>
<path d="M0 0 C-0.33 0.66 -0.66 1.32 -1 2 C-0.60061233 4.09821215 -0.60061233 4.09821215 0 6 C-4.62459244 7.17700048 -9.07866462 7.11408412 -13.8125 7.0625 C-14.99489258 7.05573242 -14.99489258 7.05573242 -16.20117188 7.04882812 C-18.13414761 7.03711312 -20.06708393 7.01917998 -22 7 C-22 6.34 -22 5.68 -22 5 C-14.45672943 1.67663284 -8.29194648 0 0 0 Z " fill="#FBC40A" transform="translate(256,145)"/>
<path d="M0 0 C2.3257718 3.48865769 3.45070844 7.03944811 4.6875 11 C4.92533203 11.72445313 5.16316406 12.44890625 5.40820312 13.1953125 C7.12049864 18.63850409 7.12049864 18.63850409 6 22 C5.01 21.67 4.02 21.34 3 21 C3 20.34 3 19.68 3 19 C2.01 19 1.02 19 0 19 C-0.19476139 16.39619004 -0.38108614 13.79224467 -0.5625 11.1875 C-0.61857422 10.44951172 -0.67464844 9.71152344 -0.73242188 8.95117188 C-0.95769724 5.63211484 -1.06255812 3.18767436 0 0 Z " fill="#E75D43" transform="translate(465,245)"/>
<path d="M0 0 C3.76154738 1.25384913 5.27191198 3.14200302 8 6 C8.86625 6.86625 9.7325 7.7325 10.625 8.625 C12.41666667 10.41666667 14.20833333 12.20833333 16 14 C15.67 14.66 15.34 15.32 15 16 C12.69 16 10.38 16 8 16 C8 13.36 8 10.72 8 8 C5.36 8 2.72 8 0 8 C0 5.36 0 2.72 0 0 Z " fill="#EA9520" transform="translate(416,176)"/>
<path d="M0 0 C2.49222746 3.73834119 1.99578077 6.24817937 1.5625 10.5 C0.99022772 15.80079405 0.99022772 15.80079405 2 21 C0.68 21 -0.64 21 -2 21 C-4.29404844 17.55892734 -4.26293056 16.03160191 -4 12 C-3.67 11.67 -3.34 11.34 -3 11 C-2.855625 10.0925 -2.71125 9.185 -2.5625 8.25 C-2.04067502 5.23501125 -1.22950236 2.78687202 0 0 Z " fill="#EA673D" transform="translate(150,235)"/>
<path d="M0 0 C0.66 1.32 1.32 2.64 2 4 C1.67 4 1.34 4 1 4 C0.91773332 7.04386724 1.02391783 9.07175348 2 12 C0.02 12.99 0.02 12.99 -2 14 C-1.98839844 14.84304688 -1.97679687 15.68609375 -1.96484375 16.5546875 C-1.95130859 18.19824219 -1.95130859 18.19824219 -1.9375 19.875 C-1.92589844 20.96554687 -1.91429687 22.05609375 -1.90234375 23.1796875 C-2 26 -2 26 -3 28 C-2.34 28.33 -1.68 28.66 -1 29 C-1.66 29.66 -2.32 30.32 -3 31 C-6.3036535 26.04451976 -5.61512703 20.78697177 -5 15 C-3.76250827 9.86011499 -1.90665858 4.92326483 0 0 Z " fill="#F55443" transform="translate(146,244)"/>
<path d="M0 0 C2 3.75 2 3.75 2 6 C1.01 6.33 0.02 6.66 -1 7 C-1.33 9.64 -1.66 12.28 -2 15 C-2.53625 15.103125 -3.0725 15.20625 -3.625 15.3125 C-6.62502044 16.18092697 -9.2379535 17.55620296 -12 19 C-10.68081702 15.27215954 -9.06253191 12.55380242 -6.5625 9.5 C-4.11249935 6.44260336 -1.88989665 3.44628213 0 0 Z " fill="#E8812D" transform="translate(170,202)"/>
<path d="M0 0 C5.41390868 0.46671627 9.20517932 1.24297811 14 4 C13.01 4.495 13.01 4.495 12 5 C12 5.66 12 6.32 12 7 C10.18757948 7.02687279 8.37504767 7.04633715 6.5625 7.0625 C5.55316406 7.07410156 4.54382813 7.08570313 3.50390625 7.09765625 C1 7 1 7 0 6 C-0.04080783 4.00041636 -0.04254356 1.99954746 0 0 Z " fill="#F7C009" transform="translate(360,145)"/>
<path d="M0 0 C5.28 0.33 10.56 0.66 16 1 C16 1.33 16 1.66 16 2 C2.64779643 4.19918647 -10.49652223 4.21987126 -24 4 C-24 3.67 -24 3.34 -24 3 C-22.02966797 2.90912109 -22.02966797 2.90912109 -20.01953125 2.81640625 C-18.28384459 2.73196744 -16.54816802 2.64732112 -14.8125 2.5625 C-13.94818359 2.52318359 -13.08386719 2.48386719 -12.19335938 2.44335938 C-8.04085878 2.23652984 -4.05462138 1.99896469 0 1 C0 0.67 0 0.34 0 0 Z " fill="#9B165A" transform="translate(320,473)"/>
<path d="M0 0 C1.98 0.99 1.98 0.99 4 2 C4.88763731 6.23334718 5.55347992 9.85738687 4 14 C2.68 14 1.36 14 0 14 C0 9.38 0 4.76 0 0 Z " fill="#F98A29" transform="translate(440,202)"/>
<path d="M0 0 C0 0.33 0 0.66 0 1 C-1.16571533 1.029729 -1.16571533 1.029729 -2.35498047 1.06005859 C-5.86200691 1.15507009 -9.36841794 1.26484559 -12.875 1.375 C-14.70998047 1.42140625 -14.70998047 1.42140625 -16.58203125 1.46875 C-17.74863281 1.50742188 -18.91523438 1.54609375 -20.1171875 1.5859375 C-21.19597168 1.6173584 -22.27475586 1.6487793 -23.38623047 1.68115234 C-26.15761654 1.74676322 -26.15761654 1.74676322 -28 4 C-29.32 4 -30.64 4 -32 4 C-32 3.34 -32 2.68 -32 2 C-32.515625 2.165 -33.03125 2.33 -33.5625 2.5 C-36.73363876 3.15049 -39.77218334 3.0620734 -43 3 C-43 2.67 -43 2.34 -43 2 C-28.70012517 -0.45265847 -14.4672726 -0.20640314 0 0 Z " fill="#B69719" transform="translate(320,135)"/>
<path d="M0 0 C3.94794145 1.67028292 6.81796118 4.1795565 10 7 C10 7.33 10 7.66 10 8 C6.04 8 2.08 8 -2 8 C-2.33 7.34 -2.66 6.68 -3 6 C-2.01 6 -1.02 6 0 6 C-0.185625 5.38125 -0.37125 4.7625 -0.5625 4.125 C-1 2 -1 2 0 0 Z " fill="#EEA416" transform="translate(406,168)"/>
<path d="M0 0 C3.23480576 6.46961151 3.14131654 12.86219987 3.0625 19.9375 C3.05798828 20.71673828 3.05347656 21.49597656 3.04882812 22.29882812 C3.03716908 24.19925268 3.01923877 26.09963706 3 28 C2.67 28 2.34 28 2 28 C1.67 24.04 1.34 20.08 1 16 C0.34 16 -0.32 16 -1 16 C-0.67 10.72 -0.34 5.44 0 0 Z " fill="#D73C52" transform="translate(473,272)"/>
<path d="M0 0 C1.32 0 2.64 0 4 0 C3 3 3 3 2 4 C2.99 4 3.98 4 5 4 C4.67 5.32 4.34 6.64 4 8 C1.03 8 -1.94 8 -5 8 C-5.33 7.01 -5.66 6.02 -6 5 C-5.01 5 -4.02 5 -3 5 C-2.5359375 4.0409375 -2.5359375 4.0409375 -2.0625 3.0625 C-1 1 -1 1 0 0 Z " fill="#FCB512" transform="translate(218,160)"/>
<path d="M0 0 C1.32 0.66 2.64 1.32 4 2 C4 3.32 4 4.64 4 6 C2.824375 5.9690625 2.824375 5.9690625 1.625 5.9375 C-0.98114961 5.81315937 -0.98114961 5.81315937 -3 7 C-3 7.66 -3 8.32 -3 9 C-4.65 9 -6.3 9 -8 9 C-7.04270084 7.87411986 -6.08412105 6.7493285 -5.125 5.625 C-4.59132812 4.99851563 -4.05765625 4.37203125 -3.5078125 3.7265625 C-2.38567993 2.44163349 -1.20628025 1.20628025 0 0 Z " fill="#F0991D" transform="translate(184,186)"/>
<path d="M0 0 C4.71403788 0.47939368 8.66579301 0.96834048 13 3 C13 3.33 13 3.66 13 4 C11.7934375 3.9690625 11.7934375 3.9690625 10.5625 3.9375 C8.06645115 3.70366379 8.06645115 3.70366379 7 5 C4.66702567 5.04092937 2.33294775 5.04241723 0 5 C0 3.35 0 1.7 0 0 Z " fill="#FDC90C" transform="translate(320,139)"/>
<path d="M0 0 C0.33 0.99 0.66 1.98 1 3 C1.99 2.67 2.98 2.34 4 2 C4 2.66 4 3.32 4 4 C4.66 4 5.32 4 6 4 C6.33 6.31 6.66 8.62 7 11 C5.68 10.67 4.36 10.34 3 10 C3 9.34 3 8.68 3 8 C2.01 8 1.02 8 0 8 C0 5.36 0 2.72 0 0 Z " fill="#F25644" transform="translate(465,256)"/>
<path d="M0 0 C0 0.66 0 1.32 0 2 C-1.32 2.33 -2.64 2.66 -4 3 C-4 3.66 -4 4.32 -4 5 C-7.47325181 6.1577506 -10.36067448 6.06866652 -14 6 C-14 5.34 -14 4.68 -14 4 C-12.42032193 3.32471777 -10.83608097 2.66010306 -9.25 2 C-8.36828125 1.62875 -7.4865625 1.2575 -6.578125 0.875 C-4 0 -4 0 0 0 Z " fill="#E3B114" transform="translate(248,146)"/>
<path d="M0 0 C0.66 0.33 1.32 0.66 2 1 C-2.03256445 6.57532585 -5.30046708 9.21345789 -12 11 C-12.66 10.67 -13.32 10.34 -14 10 C-9.38 6.7 -4.76 3.4 0 0 Z " fill="#E4A815" transform="translate(216,160)"/>
<path d="M0 0 C0.66 1.32 1.32 2.64 2 4 C1.67 4 1.34 4 1 4 C0.91773332 7.04386724 1.02391783 9.07175348 2 12 C1.401875 12.268125 0.80375 12.53625 0.1875 12.8125 C-1.98316883 13.99086308 -3.30817212 15.23060981 -5 17 C-1.92482916 5.47835991 -1.92482916 5.47835991 0 0 Z " fill="#D15543" transform="translate(146,244)"/>
<path d="M0 0 C0.66 0 1.32 0 2 0 C1.979375 1.093125 1.95875 2.18625 1.9375 3.3125 C1.81455548 6.94384191 1.81455548 6.94384191 3 10 C1.68 10 0.36 10 -1 10 C-3.29013653 6.5647952 -3.17842973 5.014669 -3 1 C-2.01 1.33 -1.02 1.66 0 2 C0 1.34 0 0.68 0 0 Z " fill="#F9633A" transform="translate(149,246)"/>
<path d="M0 0 C0.99 0.66 1.98 1.32 3 2 C2.01 2.495 2.01 2.495 1 3 C0.59270772 5.32156597 0.25561323 7.6568787 0 10 C-1.32 10 -2.64 10 -4 10 C-4 8.68 -4 7.36 -4 6 C-4.99 5.67 -5.98 5.34 -7 5 C-5.68 4.34 -4.36 3.68 -3 3 C-2.67 3.33 -2.34 3.66 -2 4 C-1.34 2.68 -0.68 1.36 0 0 Z " fill="#FBA018" transform="translate(192,182)"/>
<path d="M0 0 C5.28 0 10.56 0 16 0 C16 0.99 16 1.98 16 3 C10.21101581 3.20674944 5.57067277 2.59162079 0 1 C0 0.67 0 0.34 0 0 Z " fill="#2A1B45" transform="translate(344,139)"/>
<path d="M0 0 C2.5999298 2.51027705 4.99091227 4.9863684 7 8 C7 8.66 7 9.32 7 10 C5.02 10 3.04 10 1 10 C-0.04005702 6.61981469 -0.08004482 3.5219721 0 0 Z " fill="#DC7A2F" transform="translate(444,206)"/>
<path d="M0 0 C0.33 0.99 0.66 1.98 1 3 C0 4 0 4 -1.9609375 4.1328125 C-2.75757813 4.13023437 -3.55421875 4.12765625 -4.375 4.125 C-5.16648437 4.12757813 -5.95796875 4.13015625 -6.7734375 4.1328125 C-9 4 -9 4 -12 3 C-12 2.34 -12 1.68 -12 1 C-7.915021 0.45533613 -4.1274515 0 0 0 Z " fill="#FCCF03" transform="translate(288,137)"/>
<path d="M0 0 C0.33 0 0.66 0 1 0 C1.08089542 2.77141717 1.14044062 5.54047819 1.1875 8.3125 C1.21263672 9.09818359 1.23777344 9.88386719 1.26367188 10.69335938 C1.27333984 11.45068359 1.28300781 12.20800781 1.29296875 12.98828125 C1.3086792 13.68477783 1.32438965 14.38127441 1.34057617 15.09887695 C0.90238443 17.54489783 -0.13437358 18.42702086 -2 20 C-2.22731216 13.06697907 -1.42002108 6.7831364 0 0 Z " fill="#C93950" transform="translate(138,272)"/>
<path d="M0 0 C3.00609963 1.00203321 4.06176821 1.60028446 6 4 C6 4.99 6 5.98 6 7 C4.02 7.33 2.04 7.66 0 8 C0 5.36 0 2.72 0 0 Z " fill="#EF9F1B" transform="translate(416,176)"/>
<path d="M0 0 C-0.33 1.65 -0.66 3.3 -1 5 C-2.65 4.67 -4.3 4.34 -6 4 C-6 2.68 -6 1.36 -6 0 C-3.50907189 -1.24546405 -2.58919267 -0.7767578 0 0 Z " fill="#FBAC16" transform="translate(208,171)"/>
<path d="M0 0 C0.99 0.33 1.98 0.66 3 1 C4.6875 4.5625 4.6875 4.5625 6 8 C4.02 8 2.04 8 0 8 C0 5.36 0 2.72 0 0 Z " fill="#F09320" transform="translate(432,192)"/>
<path d="M0 0 C2.01136276 2.55991624 3.62845496 5.04590299 5 8 C3.68 8 2.36 8 1 8 C0.67 7.34 0.34 6.68 0 6 C-0.33 6.66 -0.66 7.32 -1 8 C-1.66 8 -2.32 8 -3 8 C-1.125 2.25 -1.125 2.25 0 0 Z " fill="#E5772E" transform="translate(451,216)"/>
<path d="M0 0 C3.96 1.98 3.96 1.98 8 4 C7.67 4.66 7.34 5.32 7 6 C4.36 6 1.72 6 -1 6 C-0.34 5.67 0.32 5.34 1 5 C0.67 3.35 0.34 1.7 0 0 Z " fill="#E5B014" transform="translate(384,154)"/>
<path d="M0 0 C1.62580966 0.11398665 3.25067157 0.24155659 4.875 0.375 C5.77992188 0.44460937 6.68484375 0.51421875 7.6171875 0.5859375 C10 1 10 1 12 3 C8.04 3 4.08 3 0 3 C0 2.01 0 1.02 0 0 Z " fill="#EDC10B" transform="translate(346,141)"/>
<path d="M0 0 C0 0.33 0 0.66 0 1 C-1.91345327 1.53251766 -3.8309295 2.05059483 -5.75 2.5625 C-6.81734375 2.85253906 -7.8846875 3.14257812 -8.984375 3.44140625 C-11.84335927 3.97098494 -13.31597383 3.98370862 -16 3 C-14.08802961 2.29954544 -12.17019565 1.615081 -10.25 0.9375 C-9.18265625 0.55464844 -8.1153125 0.17179688 -7.015625 -0.22265625 C-4.07719958 -0.98010011 -2.77651052 -1.07151741 0 0 Z " fill="#E0B516" transform="translate(264,142)"/>
<path d="M0 0 C5.28 0.33 10.56 0.66 16 1 C16 1.33 16 1.66 16 2 C8.08 2.495 8.08 2.495 0 3 C0 2.01 0 1.02 0 0 Z " fill="#2D0D4B" transform="translate(288,476)"/>
<path d="M0 0 C1.65 0 3.3 0 5 0 C4.01 2.64 3.02 5.28 2 8 C0.4375 6.25 0.4375 6.25 -1 4 C-0.6875 1.75 -0.6875 1.75 0 0 Z " fill="#250F45" transform="translate(145,236)"/>
<path d="M0 0 C0.33 0.66 0.66 1.32 1 2 C1.66 2 2.32 2 3 2 C3.33 3.65 3.66 5.3 4 7 C0.06326356 5.68775452 -2.22719294 4.08089673 -5 1 C-3.35 0.67 -1.7 0.34 0 0 Z " fill="#361D3C" transform="translate(396,156)"/>
<path d="M0 0 C0.99 0 1.98 0 3 0 C3 0.99 3 1.98 3 3 C4.65 3 6.3 3 8 3 C8 3.99 8 4.98 8 6 C7.34 6 6.68 6 6 6 C6 5.34 6 4.68 6 4 C3.36 4 0.72 4 -2 4 C-2 3.34 -2 2.68 -2 2 C-1.34 2 -0.68 2 0 2 C0 1.34 0 0.68 0 0 Z " fill="#2F0F4B" transform="translate(426,415)"/>
<path d="M0 0 C2.64 0.66 5.28 1.32 8 2 C8 4.31 8 6.62 8 9 C5.06799526 6.14723863 2.35684596 3.34920216 0 0 Z " fill="#311C46" transform="translate(426,184)"/>
<path d="M0 0 C2.64 0.33 5.28 0.66 8 1 C7.01 1.495 7.01 1.495 6 2 C6.33 2.99 6.66 3.98 7 5 C2.25 4.125 2.25 4.125 0 3 C0 2.01 0 1.02 0 0 Z " fill="#F1BD12" transform="translate(360,145)"/>
<path d="M0 0 C0.99 0.33 1.98 0.66 3 1 C1.68 3.31 0.36 5.62 -1 8 C-1.33 7.34 -1.66 6.68 -2 6 C-2.66 6 -3.32 6 -4 6 C-4 5.34 -4 4.68 -4 4 C-3.34 4 -2.68 4 -2 4 C-2 3.01 -2 2.02 -2 1 C-1.34 0.67 -0.68 0.34 0 0 Z " fill="#C91C5D" transform="translate(445,400)"/>
<path d="M0 0 C0.33 1.32 0.66 2.64 1 4 C0.34 4 -0.32 4 -1 4 C-0.67 6.31 -0.34 8.62 0 11 C-1.32 10.34 -2.64 9.68 -4 9 C-1.125 2.25 -1.125 2.25 0 0 Z " fill="#D26B33" transform="translate(157,221)"/>
<path d="M0 0 C-0.66 0 -1.32 0 -2 0 C-2 0.99 -2 1.98 -2 3 C-0.68 2.67 0.64 2.34 2 2 C1.67 2.66 1.34 3.32 1 4 C-0.65 4 -2.3 4 -4 4 C-4 3.34 -4 2.68 -4 2 C-5.32 1.67 -6.64 1.34 -8 1 C-4.93251126 -0.86240388 -3.40254489 -1.2151946 0 0 Z " fill="#330A4A" transform="translate(370,466)"/>
<path d="M0 0 C0.82638376 2.89234315 1 4.88742431 1 8 C0.01 8.66 -0.98 9.32 -2 10 C-2.17942163 6.05272412 -2.09350689 3.4019487 0 0 Z " fill="#330E49" transform="translate(458,382)"/>
<path d="M0 0 C1.9375 0.5 1.9375 0.5 4 2 C4.68790422 4.69658452 4.81946464 7.2017019 5 10 C4.34 9.34 3.68 8.68 3 8 C3 7.01 3 6.02 3 5 C2.34 5 1.68 5 1 5 C0.67 3.35 0.34 1.7 0 0 Z " fill="#E98525" transform="translate(440,202)"/>
<path d="M0 0 C1.32 0 2.64 0 4 0 C5 3 5 3 4.0625 5.1875 C3.5365625 6.0846875 3.5365625 6.0846875 3 7 C2.67 6.34 2.34 5.68 2 5 C2.33 4.34 2.66 3.68 3 3 C1.68 3 0.36 3 -1 3 C-0.67 2.01 -0.34 1.02 0 0 Z " fill="#2B173E" transform="translate(164,201)"/>
<path d="M0 0 C0.66 1.32 1.32 2.64 2 4 C1.34 4 0.68 4 0 4 C0 4.66 0 5.32 0 6 C-1.65 6 -3.3 6 -5 6 C-3.35 4.02 -1.7 2.04 0 0 Z " fill="#D78921" transform="translate(181,189)"/>
<path d="M0 0 C4.19469571 0.59924224 8.00999834 1.57499941 12 3 C9.75804887 4.36118461 8.52173238 5.06138028 5.875 4.75 C3.32485911 3.72994364 1.92845574 1.92845574 0 0 Z " fill="#E6B515" transform="translate(372,150)"/>
<path d="M0 0 C3.63 0 7.26 0 11 0 C11 0.33 11 0.66 11 1 C7.38026598 2.31626692 4.90432869 3 1 3 C0.67 2.01 0.34 1.02 0 0 Z " fill="#FCC804" transform="translate(263,141)"/>
<path d="M0 0 C2.64 0.33 5.28 0.66 8 1 C4.46588679 3.12046792 1.05606165 3.53199289 -3 4 C-3 3.34 -3 2.68 -3 2 C-2.01 2 -1.02 2 0 2 C0 1.34 0 0.68 0 0 Z " fill="#341D45" transform="translate(264,137)"/>
<path d="M0 0 C0.99 0.33 1.98 0.66 3 1 C2.67 2.65 2.34 4.3 2 6 C0 4.625 0 4.625 -2 3 C-2 2.34 -2 1.68 -2 1 C-1.34 0.67 -0.68 0.34 0 0 Z " fill="#2B164E" transform="translate(437,192)"/>
<path d="M0 0 C0.66 0.33 1.32 0.66 2 1 C2 2.32 2 3.64 2 5 C-3.75 4.25 -3.75 4.25 -6 2 C-4.02 2 -2.04 2 0 2 C0 1.34 0 0.68 0 0 Z " fill="#341F41" transform="translate(382,148)"/>
<path d="M0 0 C0 0.66 0 1.32 0 2 C-3.3 2 -6.6 2 -10 2 C-6.80505194 -1.19494806 -4.22040044 -1.35655728 0 0 Z " fill="#3E0E4B" transform="translate(362,469)"/>
<path d="M0 0 C0.66 0.33 1.32 0.66 2 1 C2.73075648 3.3140622 3.40138258 5.64828869 4 8 C3.01 8.33 2.02 8.66 1 9 C0.29925156 5.846632 0 3.27275026 0 0 Z " fill="#D3623D" transform="translate(459,231)"/>
<path d="M0 0 C0.66 0 1.32 0 2 0 C2 1.65 2 3.3 2 5 C1.01 4.67 0.02 4.34 -1 4 C-1.33 4.66 -1.66 5.32 -2 6 C-2.66 5.34 -3.32 4.68 -4 4 C-2.68 3.34 -1.36 2.68 0 2 C0 1.34 0 0.68 0 0 Z " fill="#E0A018" transform="translate(200,171)"/>
<path d="M0 0 C2.475 0.495 2.475 0.495 5 1 C5 1.99 5 2.98 5 4 C5.66 4.33 6.32 4.66 7 5 C4.625 4.75 4.625 4.75 2 4 C0.6875 1.9375 0.6875 1.9375 0 0 Z " fill="#1B0B59" transform="translate(424,180)"/>
</svg>
